<svg width="17px" height="12px" viewBox="0 0 17 12" version="1.1" xmlns="http://www.w3.org/2000/svg" xmlns:xlink="http://www.w3.org/1999/xlink">
    <!-- Generator: Sketch 47.1 (45422) - http://www.bohemiancoding.com/sketch -->
    <desc>Created with Sketch.</desc>
    <defs/>
    <g id="Symbols" stroke="none" stroke-width="1" fill="none" fill-rule="evenodd">
        <g id="see-details" transform="translate(-95.000000, -7.000000)" fill-rule="nonzero" fill="#7F465C">
            <g id="arrow">
                <path d="M95.9058291,13.9239902 L108.161697,13.9239902 L104.336834,17.4454009 C103.985538,17.7877102 103.970522,18.3474465 104.302959,18.7080984 C104.635397,19.0687502 105.194502,19.0992799 105.564232,18.7769697 L111.094319,13.6839455 C111.280205,13.5124579 111.385935,13.2710676 111.385935,13.0181611 C111.385935,12.7652546 111.280205,12.5238643 111.094319,12.3523767 L105.564232,7.25708794 C105.328161,7.02705632 104.985771,6.94341262 104.67023,7.03868917 C104.354689,7.13396572 104.115806,7.3931229 104.046492,7.71536424 C103.977178,8.03760557 104.088375,8.37206451 104.336834,8.58865674 L108.161697,12.112332 L95.9058291,12.112332 C95.4055535,12.112332 95,12.5178855 95,13.0181611 C95,13.5184367 95.4055535,13.9239902 95.9058291,13.9239902 Z"/>
            </g>
        </g>
    </g>
</svg>